<svg width="60" height="40" viewBox="0 0 60 40" fill="none" xmlns="http://www.w3.org/2000/svg">
<rect x="0.5" y="0.5" width="59" height="39" rx="2.5" fill="white" stroke="#D5DFFF"/>
<g clip-path="url(#clip0_6853_198093)">
<path d="M16.7654 23.2832C16.9503 23.2677 17.1067 23.5028 17.4074 23.2975C17.7165 22.572 17.5017 21.7151 17.5864 20.9537C17.0757 20.11 17.1413 19.1064 16.4849 18.3904C16.7797 17.8701 17.0613 17.376 17.3442 16.876C17.7022 16.9273 17.8669 17.1672 18.0268 17.4166C20.1749 20.758 18.2738 25.3955 14.4001 26.2834C10.9059 27.0853 7.75298 24.9635 7.07991 21.4442C6.61211 18.9918 8.18737 15.3508 11.9262 14.7016C12.9551 14.5229 14.0128 14.6163 14.9944 14.9725C15.0218 15.4368 15.4443 15.5788 15.7259 15.8509C15.6555 16.2745 15.4741 16.6361 15.2486 17.0442C13.8022 16.1552 12.3129 15.9153 10.7376 16.5227C9.50963 17.0001 8.65756 17.8593 8.0919 19.0348C7.06798 21.1626 7.91766 23.9193 9.98817 25.152C12.1363 26.4266 15.1257 26.0172 16.7654 23.2832Z" fill="#0F81AA"/>
<path d="M16.2928 15.7435L15.5242 15.1683L17.5434 13.9976C17.7356 14.9391 17.9074 15.7876 18.09 16.6815C17.732 16.6671 17.5411 16.3354 17.1807 16.3235C16.066 18.1792 15.2092 20.2843 12.9633 21.4192C14.7235 19.8224 15.3584 17.7316 16.2928 15.7435Z" fill="#0F81AA"/>
<path d="M15.8954 21.578L15.4789 20.9408C16.0505 20.8393 16.553 21.0183 17.1186 21.0446C17.173 21.6114 17.1646 22.1825 17.0936 22.7475C16.8238 22.7237 16.7809 22.4528 16.4384 22.4038C14.7703 23.37 12.8198 23.7304 10.9166 23.4242C12.6769 23.3693 14.4216 22.9313 15.8954 21.578Z" fill="#0F81AA"/>
<path d="M13.0576 17.7258C13.0934 18.2031 12.9383 18.5802 12.819 18.9764C12.554 18.9562 12.4681 18.6745 12.2306 18.6602C11.3308 19.029 11.116 19.4514 10.8057 21.4587C10.6745 20.2343 10.7234 19.0445 11.7008 18.1996C11.7151 18.1376 11.7114 18.0728 11.6903 18.0128C11.6692 17.9527 11.6314 17.9 11.5814 17.8606C11.5025 17.7876 11.4367 17.7017 11.3869 17.6064C11.9442 17.6745 12.4932 17.6745 13.0576 17.7258Z" fill="#0F81AA"/>
<path d="M41.6235 19.215C41.8061 18.7675 41.7011 18.3498 41.7261 17.944C41.7512 17.5383 41.6879 17.1146 41.7727 16.6838C42.0937 16.5323 42.4278 16.6421 42.8193 16.5979V24.1293C41.7452 24.5052 40.6413 24.7164 39.5279 24.1663C37.9025 23.3632 37.5123 20.9227 38.8119 19.6529C39.0774 19.3835 39.407 19.1859 39.7698 19.0788C40.1326 18.9717 40.5167 18.9586 40.886 19.0407C41.1259 19.0861 41.3681 19.1541 41.6235 19.215ZM41.6987 20.3212C40.5411 19.6362 39.5661 20.1064 39.3907 21.3714C39.2952 22.0683 39.3907 22.7378 39.9802 23.2032C40.4898 23.6066 41.0721 23.5732 41.7106 23.3667C41.7357 22.3285 41.75 21.3296 41.6987 20.3212Z" fill="#0F81AA"/>
<path d="M28.5321 21.7534C28.5321 20.1352 29.6121 18.9716 31.1468 18.9955C32.8772 19.0217 33.783 20.1769 33.7854 21.7402C33.7854 23.3704 32.8187 24.4743 31.1599 24.4958C29.6061 24.5125 28.5321 23.3811 28.5321 21.7534ZM32.4822 21.7713C32.4919 21.4741 32.4475 21.1777 32.3509 20.8965C32.1218 20.3261 31.6993 19.9955 31.1575 19.9872C30.6157 19.9788 30.1324 20.3285 29.926 20.924C29.8146 21.2316 29.7665 21.5587 29.7848 21.8854C29.803 22.2121 29.8872 22.5317 30.0322 22.825C30.1209 23.0257 30.2658 23.1963 30.4494 23.3164C30.633 23.4365 30.8475 23.5008 31.0668 23.5017C31.2949 23.5226 31.5242 23.4775 31.7274 23.3717C31.9305 23.2659 32.0989 23.1039 32.2125 22.905C32.4092 22.561 32.5009 22.1668 32.4762 21.7713H32.4822Z" fill="#0F81AA"/>
<path d="M27.7553 23.1817C27.9003 23.4226 27.9971 23.6892 28.0405 23.967C26.7063 24.8716 24.4998 24.5195 23.4472 23.3703C22.286 22.1029 22.1882 19.6959 23.2527 18.3044C24.2611 16.9917 26.4127 16.691 27.9749 17.5406C27.9376 17.8512 27.828 18.1488 27.655 18.4094C27.3328 18.3187 27.0333 18.2256 26.729 18.1516C25.2695 17.7936 24.1036 18.5455 23.8446 20.0181C23.7639 20.4668 23.7687 20.9268 23.8589 21.3738C24.1847 22.9693 25.5392 23.7605 27.192 23.3393C27.3806 23.2939 27.5667 23.2366 27.7553 23.1817Z" fill="#0F81AA"/>
<path d="M49.6287 20.4871C48.9126 19.5503 47.9937 20.1685 47.1787 20.2102C46.9555 20.0097 46.94 19.7448 46.8588 19.5121C47.5928 18.9059 49.3733 18.8068 50.1096 19.3355C50.5452 19.6481 50.7158 20.1016 50.717 20.6231C50.717 21.7306 50.717 22.8368 50.717 24.0195C50.7087 24.0851 50.5977 24.1388 50.4855 24.1734C49.5308 24.467 48.5594 24.6138 47.5653 24.3656C46.73 24.1555 46.2311 23.5744 46.2657 22.8297C46.2991 22.1244 46.7228 21.7198 47.3398 21.4847C47.8171 21.301 48.3338 21.227 48.8363 21.1267C49.1537 21.0575 49.4544 20.9656 49.6287 20.4871ZM49.5594 23.3381C49.6281 22.8223 49.6169 22.299 49.526 21.7867C48.8303 22.1447 47.903 21.906 47.5104 22.77C47.767 23.5576 48.4615 23.751 49.5594 23.3381Z" fill="#0F81AA"/>
<path d="M53.1157 23.4288C53.4093 23.5672 53.5775 23.4849 53.7315 23.5279C53.9403 23.7415 53.9308 24.0219 54.0024 24.3059C53.6157 24.4408 53.2577 24.5327 52.8782 24.4826C52.2887 24.405 52.0023 24.0995 51.9712 23.5028C51.9521 23.1448 51.9605 22.7868 51.9605 22.4288C51.9605 20.727 51.9605 19.0252 51.9605 17.3235C51.9605 17.1087 51.9342 16.8891 52.0237 16.6564C52.3495 16.549 52.6789 16.6182 53.1145 16.6039L53.1157 23.4288Z" fill="#0F81AA"/>
<path d="M34.7627 19.5183C35.7627 19.1686 36.7473 18.7772 37.8655 19.14C37.8178 19.4556 37.7088 19.7589 37.5445 20.0326C37.0134 19.9753 36.4788 19.9061 35.9239 20.1949C35.7926 21.5386 35.9501 22.9218 35.8391 24.3109C35.4811 24.4159 35.1493 24.3825 34.7651 24.3383L34.7627 19.5183Z" fill="#0F81AA"/>
<path d="M44.3038 19.1315C44.6374 19.0828 44.9769 19.0921 45.3074 19.159V24.3156C44.9625 24.4182 44.6498 24.3597 44.3527 24.3705C44.1653 23.9277 44.1319 19.8225 44.3038 19.1315Z" fill="#0F81AA"/>
<path d="M44.7621 17.8534C44.3575 17.8641 44.046 17.6039 44.0281 17.2447C44.027 17.1559 44.0434 17.0677 44.0764 16.9852C44.1094 16.9026 44.1583 16.8274 44.2204 16.7638C44.2824 16.7002 44.3564 16.6494 44.4381 16.6144C44.5198 16.5794 44.6076 16.5608 44.6964 16.5597C45.1165 16.5406 45.4578 16.8271 45.4662 17.2089C45.4709 17.555 45.1606 17.8438 44.7621 17.8534Z" fill="#0F81AA"/>
</g>
<defs>
<clipPath id="clip0_6853_198093">
<rect width="47" height="12.4505" fill="white" transform="translate(7 14)"/>
</clipPath>
</defs>
</svg>
