<svg width="60" height="40" viewBox="0 0 60 40" fill="none" xmlns="http://www.w3.org/2000/svg">
<rect x="0.5" y="0.5" width="59" height="39" rx="2.5" fill="white" stroke="#D5DFFF"/>
<g clip-path="url(#clip0_6853_198079)">
<path d="M27.6053 17.4781C28.1761 16.934 28.8603 16.523 29.6086 16.2745C30.357 16.026 31.1511 15.9462 31.9339 16.0408C33.0898 16.182 34.1584 16.728 34.9501 17.5819C34.551 17.9539 34.1489 18.3224 33.7499 18.6963C33.227 18.1316 32.5242 17.7661 31.7617 17.6623C30.6551 17.4955 29.5239 17.9245 28.7053 18.6639C28.3429 18.2672 27.9834 17.8651 27.6053 17.4781Z" fill="#E76240"/>
<path d="M50.0573 18.9856C50.6256 18.9958 51.1939 18.9856 51.7628 18.9892C52.5123 20.7613 53.2523 22.5382 53.9994 24.3116C53.3957 24.317 52.7932 24.3116 52.1901 24.3116L51.8498 23.3862C51.2101 23.3862 50.5698 23.3862 49.9295 23.3862C49.8172 23.6958 49.7026 24.0031 49.5874 24.3104C48.9963 24.3104 48.4052 24.3104 47.8147 24.3104C48.5588 22.5352 49.2957 20.7547 50.0573 18.9856ZM50.8914 20.7931C50.7318 21.2168 50.5758 21.6429 50.4174 22.0671C50.7318 22.0671 51.0481 22.0671 51.3625 22.0707C51.2089 21.6429 51.0499 21.218 50.8914 20.7931ZM44.2962 21.8019C44.9041 22.282 45.7305 22.2568 46.423 22.5418C46.5874 22.5778 46.5694 22.7465 46.5905 22.8761C46.4427 22.9708 46.273 23.0258 46.0978 23.0357C45.455 23.0657 44.8147 22.8731 44.2656 22.5454C44.0922 22.8863 43.9602 23.2464 43.8023 23.5944C43.8023 23.3718 43.8023 23.1485 43.8023 22.9253C42.9532 22.9253 42.1052 22.9253 41.2561 22.9253C41.2561 22.7027 41.2561 22.4782 41.2561 22.255C41.9762 22.255 42.6903 22.255 43.4081 22.255C43.4081 21.8229 43.4081 21.3902 43.4081 20.9581H41.2561C41.2561 20.7581 41.2561 20.5581 41.2561 20.358C42.0662 20.358 42.8764 20.358 43.6865 20.358C43.6865 19.9026 43.6865 19.4471 43.6865 18.9916H39.5422C39.5422 20.7661 39.5422 22.5412 39.5422 24.3164C40.96 24.3164 42.3791 24.3164 43.7993 24.3164C43.7993 24.1903 43.7993 24.0667 43.7993 23.9413C44.1753 24.1392 44.5805 24.276 44.9996 24.3464C45.8997 24.4982 46.9199 24.4934 47.6856 23.9263C48.4214 23.3862 48.5708 22.1104 47.8177 21.5216C47.2008 20.9996 46.3348 21.0596 45.6225 20.7595C45.4196 20.6815 45.467 20.3736 45.6645 20.3244C46.306 20.1012 46.9883 20.3658 47.5716 20.6401C47.7457 20.2 47.9209 19.7615 48.0973 19.3246C47.5704 19.0246 46.9673 18.8902 46.366 18.8596C45.6495 18.8284 44.8705 18.943 44.3094 19.4273C43.6361 20.007 43.5479 21.2456 44.2962 21.8019ZM34.3344 18.9904H37.2953C37.8955 19.0012 38.5658 19.1584 38.9288 19.6769C39.3369 20.277 39.1167 21.1772 38.4704 21.518C38.8838 21.6981 39.2619 22.0437 39.3417 22.5058C39.4617 23.0261 39.2787 23.6388 38.8082 23.9263C38.2867 24.2797 37.6344 24.2966 37.0265 24.3134C36.1293 24.3134 35.2322 24.3134 34.3362 24.3134C34.3326 22.54 34.335 20.7649 34.3344 18.9904ZM36.0459 21.026C36.4168 21.0158 36.8015 21.0698 37.1621 20.9587C37.4766 20.8519 37.4268 20.3472 37.1021 20.2848C36.7528 20.2344 36.3976 20.2752 36.0459 20.2632C36.0471 20.5195 36.0471 20.7715 36.0459 21.026ZM36.0459 22.2316C36.0459 22.5012 36.0459 22.7707 36.0459 23.0399C36.5116 23.0087 37.0097 23.1263 37.4526 22.9403C37.7526 22.7651 37.6188 22.2706 37.2821 22.2436C36.8711 22.2124 36.4582 22.2394 36.0459 22.2316ZM30.5849 18.9682C31.5115 18.7773 32.5467 18.9682 33.2656 19.6079C34.3608 20.5723 34.4484 22.4284 33.4792 23.5086C32.4033 24.7148 30.2987 24.7448 29.1693 23.601C28.2409 22.6649 28.1593 21.0506 28.9394 19.9992C29.3289 19.4621 29.938 19.1032 30.5825 18.9682H30.5849ZM31.0212 20.394C30.2201 20.5945 29.9776 21.6135 30.2849 22.2976C30.5015 22.8473 31.1988 23.1485 31.7359 22.8713C32.3895 22.5514 32.5419 21.6783 32.2868 21.0512C32.0918 20.5681 31.5307 20.2446 31.0188 20.394H31.0212ZM17.853 18.9904C18.7178 18.9904 19.5819 18.9904 20.4455 18.9904C21.0342 18.9904 21.6427 19.1704 22.0808 19.5767C22.9557 20.4114 22.8057 22.1014 21.6949 22.6655C22.0484 23.2152 22.4084 23.7607 22.7667 24.308C22.1444 24.3236 21.5215 24.3128 20.8991 24.3152C20.6123 23.8699 20.3188 23.4294 20.0392 22.9781L19.5897 22.9709C19.5897 23.4194 19.5897 23.8675 19.5897 24.3152C19.0112 24.3152 18.4315 24.3152 17.853 24.3152V18.9904ZM19.5897 20.3796C19.5897 20.7881 19.5897 21.1966 19.5897 21.6051C19.9222 21.5967 20.2726 21.6495 20.5901 21.5222C21.0216 21.317 20.9778 20.5519 20.5037 20.4252C20.2066 20.3394 19.894 20.3892 19.5897 20.3796ZM22.8537 18.9892C23.7487 18.9892 24.6438 18.9892 25.5392 18.9892C26.461 18.9892 27.4259 19.4153 27.9 20.2344C28.4953 21.2996 28.3651 22.8263 27.4019 23.6388C26.872 24.0973 26.1633 24.2852 25.475 24.305C24.6012 24.3272 23.7281 24.305 22.8537 24.3152C22.8521 22.54 22.8521 20.7647 22.8537 18.9892ZM24.5898 20.3994C24.5898 21.2258 24.5898 22.0503 24.5898 22.8755C25.0183 22.8527 25.4768 22.9541 25.8777 22.7597C26.6278 22.4032 26.6902 21.2516 26.1441 20.6935C25.7234 20.2986 25.1137 20.4168 24.5898 20.3994ZM7.78015 19.6595C8.94916 18.5019 11.1738 18.5745 12.161 19.932C11.7895 20.2716 11.4264 20.6197 11.0507 20.9521C10.7945 20.6191 10.4206 20.3394 9.98195 20.331C9.74915 20.3142 9.51698 20.3714 9.31858 20.4943C9.12018 20.6173 8.96569 20.7998 8.87715 21.0158C8.5957 21.6705 8.78533 22.6264 9.51987 22.8833C10.096 23.1059 10.7189 22.7999 11.0561 22.3246C11.424 22.6691 11.7949 23.0087 12.1628 23.3532C11.1684 24.7142 8.93776 24.779 7.76995 23.6112C6.74016 22.5676 6.74316 20.6959 7.78015 19.6595ZM12.4256 19.9566C11.5884 21.0746 11.7349 22.8371 12.8169 23.7463C13.9733 24.7244 15.899 24.656 16.9456 23.5446C17.9718 22.453 17.892 20.5195 16.7446 19.5437C15.9806 18.8836 14.8806 18.7143 13.9205 18.9622C13.333 19.12 12.7857 19.4615 12.4256 19.9566ZM15.8882 21.3836C16.0683 22.15 15.4604 23.1023 14.6052 22.9403C13.3966 22.7477 13.3066 20.7523 14.4432 20.3808C15.1189 20.1348 15.8306 20.6995 15.8882 21.3836Z" fill="#005754"/>
</g>
<defs>
<clipPath id="clip0_6853_198079">
<rect width="47" height="8.43814" fill="white" transform="translate(7 16)"/>
</clipPath>
</defs>
</svg>
