<svg width="48" height="49" viewBox="0 0 48 49" fill="none" xmlns="http://www.w3.org/2000/svg">
    <rect y="0.5" width="48" height="48" fill="#CCFF00"/>
    <path d="M15.807 11.1667L20.8686 15.2626C18.8668 17.296 17.4084 19.2423 16.4933 21.1014C15.6354 22.9024 15.2064 24.8487 15.2064 26.9402L12.2895 23.7158L22.0697 23.7158L22.0697 37.8334L8 37.8334L8 28.8574C8 25.5458 8.57194 22.5248 9.71582 19.7942C10.9169 17.0055 12.9473 14.1297 15.807 11.1667ZM33.7373 11.1667L38.7989 15.2626C36.7971 17.296 35.3387 19.2423 34.4236 21.1014C33.5657 22.9024 33.1367 24.8487 33.1367 26.9402L30.2198 23.7158L40 23.7158L40 37.8334L25.9303 37.8334L25.9303 28.8574C25.9303 25.5458 26.5022 22.5248 27.6461 19.7942C28.8472 17.0055 30.8776 14.1297 33.7373 11.1667Z" fill="#1D1E20"/>
</svg>
