<svg width="60" height="40" viewBox="0 0 60 40" fill="none" xmlns="http://www.w3.org/2000/svg">
<rect x="0.5" y="0.5" width="59" height="39" rx="2.5" fill="white" stroke="#D5DFFF"/>
<g clip-path="url(#clip0_6853_198148)">
<path d="M13.533 18.157L11.1595 13.974C11.0563 13.7873 11.0049 13.5763 11.0107 13.363V16.9742C11.0115 17.486 10.9075 17.9925 10.7052 18.4625C10.6 18.6953 10.4741 18.9181 10.3292 19.1284C10.1839 19.3418 10.0158 19.5388 9.82783 19.7159C9.64462 19.8988 9.44242 20.0616 9.22467 20.2015C9.00589 20.3416 8.77523 20.4622 8.53533 20.5619C8.29216 20.6586 8.04037 20.732 7.78333 20.7812C7.52457 20.8271 7.26271 20.8532 7 20.8595V23.4445C7.38613 23.4456 7.77156 23.4116 8.1515 23.3427C8.52955 23.2802 8.90165 23.1858 9.26383 23.0607C9.62833 22.9325 9.9798 22.7698 10.3135 22.575C10.6441 22.3873 10.9585 22.1724 11.2535 21.9327C11.5451 21.696 11.8151 21.4338 12.0603 21.1494C12.3065 20.865 12.5292 20.5611 12.7262 20.2407C12.9203 19.9192 13.0854 19.581 13.2197 19.2302C13.3605 18.8841 13.4655 18.5245 13.533 18.157Z" fill="url(#paint0_linear_6853_198148)"/>
<path d="M19.9563 24.8701C19.9468 24.9129 19.9337 24.9549 19.9171 24.9955L19.9563 24.8701ZM18.3583 25.8101L18.28 25.7788L18.3583 25.8101ZM19.878 25.0894C19.878 25.1286 19.8388 25.16 19.8153 25.1991L19.878 25.0894ZM18.0606 25.677L17.9823 25.6456L18.0606 25.677ZM17.7395 25.4498L17.7081 25.4185L17.7395 25.4498ZM19.0555 25.7788L18.9693 25.8023L19.0555 25.7788ZM19.7448 25.301L19.6586 25.4028L19.7448 25.301ZM19.314 25.677L19.361 25.6456L19.2748 25.6926L19.314 25.677ZM19.5725 25.489L19.4785 25.5673L19.5725 25.489Z" fill="#982D32"/>
<path d="M11.1595 13.974L13.533 18.157L17.5124 25.1678L17.5359 25.207C17.4159 25.0111 17.351 24.7865 17.3479 24.5568V19.5356L13.4782 12.7441C13.3383 12.4913 13.1176 12.2928 12.8515 12.1801C12.5825 12.0632 12.2823 12.0384 11.9977 12.1096C11.8045 12.1566 11.6248 12.2477 11.4729 12.376C11.3209 12.5004 11.2002 12.6587 11.1204 12.8381C11.0413 13.0181 11.0038 13.2135 11.0107 13.41C11.0117 13.6075 11.0629 13.8016 11.1595 13.974Z" fill="#982D32"/>
<path d="M17.5358 25.207C17.5817 25.2908 17.6398 25.3674 17.7082 25.4342L17.7395 25.4655C17.8116 25.5366 17.8934 25.5972 17.9823 25.6457L18.0607 25.6848C18.131 25.7203 18.2044 25.7491 18.28 25.771L18.3662 25.8023C18.4662 25.8269 18.5687 25.8401 18.6717 25.8415C18.769 25.8388 18.8659 25.8283 18.9615 25.8102L19.0477 25.7867C19.121 25.7688 19.1919 25.7425 19.2592 25.7083L19.3453 25.6535L19.4628 25.583L19.5568 25.5047L19.643 25.4107L19.7292 25.3088L19.7918 25.207C19.7918 25.1678 19.8388 25.1365 19.8545 25.0973L19.9015 24.9798L19.9328 24.8623C19.933 24.822 19.941 24.7821 19.9563 24.7448V13.363C19.9735 13.1297 19.9246 12.8962 19.8153 12.6893C19.6985 12.4785 19.5248 12.3048 19.314 12.188C19.104 12.0677 18.8667 12.003 18.6247 12C18.3821 11.9992 18.1439 12.0642 17.9353 12.188C17.7303 12.3106 17.5624 12.4866 17.4497 12.6972C17.3388 12.9037 17.2873 13.1368 17.3008 13.3708V24.549C17.3195 24.7853 17.4006 25.0124 17.5358 25.207Z" fill="#F16033"/>
<path d="M47.6786 25.8727C47.678 26.0054 47.6486 26.1363 47.5924 26.2565C47.4673 26.4945 47.2619 26.6804 47.0127 26.7814C46.8851 26.8282 46.7482 26.8443 46.6132 26.8284V27.8702C46.6132 27.8702 48.6891 27.8702 48.7752 25.9745V21.5644H47.6864V25.8727H47.6786ZM52.6606 24.4549C52.5609 24.5968 52.4259 24.7103 52.2689 24.7839C52.1098 24.8578 51.9347 24.8901 51.7597 24.8779C51.6096 24.8831 51.4601 24.8564 51.3211 24.7995C51.181 24.7449 51.0551 24.6592 50.9529 24.5489C50.8291 24.4318 50.735 24.2867 50.6787 24.1259C50.6229 23.9677 50.6015 23.7995 50.6161 23.6324C50.5958 23.338 50.682 23.0461 50.8589 22.8099C50.9578 22.6722 51.0898 22.5617 51.2427 22.4887C51.3996 22.4161 51.5713 22.3812 51.7441 22.3869C51.8987 22.3789 52.0534 22.4029 52.1984 22.4574C52.3408 22.5119 52.4693 22.5975 52.5744 22.708C52.6931 22.8247 52.7842 22.9666 52.8407 23.1232C52.8953 23.2791 52.9192 23.444 52.9112 23.6089C52.937 23.9075 52.8535 24.2054 52.6762 24.447L52.6606 24.4549ZM52.9034 21.8229C52.5746 21.5646 52.17 21.4215 51.7519 21.4155C51.4623 21.4191 51.1762 21.4797 50.9101 21.5939C50.6439 21.7082 50.4029 21.8738 50.2009 22.0814C49.8188 22.4783 49.5982 23.0033 49.5821 23.554C49.5647 24.1017 49.7487 24.6368 50.0991 25.058C50.2984 25.3009 50.5538 25.4918 50.8432 25.6142C51.1321 25.7399 51.4448 25.8014 51.7597 25.7944C52.1785 25.7921 52.5842 25.6486 52.9112 25.387V25.669H54.0001V21.5565H52.9112L52.9034 21.8229ZM48.2426 19.4885C48.1523 19.4832 48.062 19.4964 47.9771 19.5274C47.8922 19.5584 47.8146 19.6065 47.7491 19.6687C47.687 19.7302 47.6378 19.8035 47.6041 19.8841C47.5705 19.9648 47.5532 20.0513 47.5532 20.1387C47.5532 20.2261 47.5705 20.3126 47.6041 20.3933C47.6378 20.474 47.687 20.5472 47.7491 20.6087C47.8808 20.7315 48.0547 20.7988 48.2347 20.7967C48.4141 20.7952 48.5867 20.7283 48.7204 20.6087C48.7824 20.5472 48.8317 20.474 48.8653 20.3933C48.8989 20.3126 48.9162 20.2261 48.9162 20.1387C48.9162 20.0513 48.8989 19.9648 48.8653 19.8841C48.8317 19.8035 48.7824 19.7302 48.7204 19.6687C48.5882 19.5527 48.4184 19.4887 48.2426 19.4885ZM44.7881 21.4312C44.4281 21.4308 44.0793 21.5554 43.8011 21.7837V21.5565H42.7044V25.7082H43.8011V23.648C43.7545 23.3064 43.8235 22.959 43.9969 22.661C44.0814 22.561 44.1889 22.4831 44.3102 22.4339C44.4319 22.3852 44.5636 22.3664 44.6941 22.379C44.8007 22.371 44.9078 22.387 45.0074 22.426C45.1075 22.4637 45.1984 22.5224 45.2737 22.5984C45.4455 22.877 45.5173 23.2057 45.4774 23.5305V25.6847H46.5662V23.4914C46.5977 23.223 46.5737 22.9511 46.4957 22.6924C46.4172 22.432 46.2836 22.1916 46.1041 21.9874C45.9317 21.8133 45.7267 21.6749 45.5009 21.58C45.2729 21.4848 45.0272 21.4394 44.7802 21.4469L44.7881 21.4312ZM40.3466 24.4549C40.2447 24.5948 40.1103 24.7077 39.9549 24.7839C39.7958 24.8578 39.6207 24.8901 39.4457 24.8779C39.2956 24.8831 39.1461 24.8564 39.0071 24.7995C38.8693 24.7448 38.746 24.659 38.6467 24.5489C38.5229 24.4318 38.4289 24.2867 38.3726 24.1259C38.3142 23.9683 38.2902 23.8 38.3021 23.6324C38.2884 23.3375 38.3769 23.047 38.5527 22.8099C38.6479 22.6688 38.7809 22.5575 38.9366 22.4887C39.2356 22.3643 39.5698 22.3531 39.8766 22.4574C40.0167 22.512 40.1425 22.5977 40.2447 22.708C40.3635 22.8247 40.4545 22.9666 40.5111 23.1232C40.5669 23.2787 40.5882 23.4444 40.5737 23.6089C40.5995 23.9075 40.516 24.2054 40.3387 24.447L40.3466 24.4549ZM40.5816 21.8307C40.2534 21.5712 39.8484 21.428 39.4301 21.4234C38.988 21.4011 38.5491 21.5101 38.1689 21.7367C37.7937 21.961 37.4958 22.2944 37.3151 22.6924C37.1332 23.0866 37.0785 23.5276 37.1585 23.9542C37.2385 24.3809 37.4493 24.7721 37.7616 25.0737C37.9651 25.3103 38.2195 25.4977 38.5057 25.622C38.7946 25.7477 39.1073 25.8092 39.4222 25.8022C39.8416 25.8037 40.2485 25.6597 40.5737 25.3949V25.6769H41.6626V21.5565H40.5737V21.8307H40.5816ZM35.6231 21.8307V21.5487H34.5264V25.7004H35.6231V23.7185C35.5921 23.3894 35.6545 23.0582 35.8032 22.7629C35.8755 22.6604 35.9763 22.5814 36.0931 22.5357C36.2088 22.4852 36.3365 22.4689 36.4612 22.4887H36.8607V21.5644H36.4612C36.1563 21.5494 35.8569 21.6501 35.6231 21.8464V21.8307ZM32.1686 24.4549C32.0667 24.5948 31.9323 24.7077 31.7769 24.7839C31.6178 24.8578 31.4427 24.8901 31.2677 24.8779C31.1176 24.8831 30.9681 24.8564 30.8291 24.7995C30.6913 24.7448 30.568 24.659 30.4687 24.5489C30.3434 24.4314 30.2469 24.2867 30.1867 24.1259C30.1266 23.966 30.1051 23.7943 30.1241 23.6245C30.1028 23.3288 30.1921 23.0357 30.3747 22.802C30.4771 22.68 30.6021 22.5789 30.7429 22.5044C30.8865 22.4309 31.044 22.3882 31.2051 22.379C31.3648 22.3711 31.5246 22.3951 31.6751 22.4495C31.8282 22.5047 31.9673 22.5929 32.0824 22.708C32.1975 22.8231 32.2858 22.9622 32.3409 23.1154C32.3954 23.2712 32.4194 23.4361 32.4114 23.601C32.4296 23.8989 32.3468 24.1942 32.1764 24.4392L32.1686 24.4549ZM32.4114 21.8229C32.0832 21.5634 31.6782 21.4201 31.2599 21.4155C30.9648 21.4148 30.6723 21.4706 30.3982 21.58C29.9869 21.7372 29.6348 22.0185 29.3905 22.3848C29.1463 22.7512 29.0221 23.1845 29.0352 23.6245C29.0283 24.1616 29.2338 24.6796 29.6071 25.0659C29.8077 25.3066 30.0613 25.4977 30.348 25.624C30.6347 25.7504 30.9469 25.8087 31.2599 25.7944C31.6794 25.7968 32.0867 25.6528 32.4114 25.387V25.669H33.5159V21.5565H32.4114V21.8229ZM27.1709 23.8204L23.8495 19.4807H22.8625V25.716H23.9905V21.392L27.3197 25.716H28.3067V19.4807H27.163V23.8204H27.1709Z" fill="#F16033"/>
</g>
<defs>
<linearGradient id="paint0_linear_6853_198148" x1="10.2665" y1="13.363" x2="10.2665" y2="23.4445" gradientUnits="userSpaceOnUse">
<stop stop-color="#D1362B"/>
<stop offset="1" stop-color="#F89A34"/>
</linearGradient>
<clipPath id="clip0_6853_198148">
<rect width="47" height="15.8703" fill="white" transform="translate(7 12)"/>
</clipPath>
</defs>
</svg>
